<svg enable-background="new 0 0 76.00 76.00" height="76" viewBox="0 0 76 76" width="76" xmlns="http://www.w3.org/2000/svg"><path d="m57 47.5c0 2.6234-2.1266 4.75-4.75 4.75h-28.5c-2.6234 0-4.75-2.1266-4.75-4.75zm-33.25-7.9167v-15.8333h25.3333c4.3723 0 7.9167 3.5444 7.9167 7.9167 0 4.3722-3.5444 7.9166-7.9167 7.9166 0 2.6234-2.1266 6.3334-4.75 6.3334h-15.8333c-2.6234 0-4.75-3.71-4.75-6.3334zm25.3333-3.1666c2.6234 0 4.75-2.1267 4.75-4.75 0-2.6234-2.1266-4.75-4.75-4.75z" stroke="#fff" stroke-linejoin="round" stroke-width=".2"/></svg>